<?xml version="1.0" standalone="no"?>
<!DOCTYPE svg PUBLIC "-//W3C//DTD SVG 20010904//EN"
 "http://www.w3.org/TR/2001/REC-SVG-20010904/DTD/svg10.dtd">
<svg version="1.0" xmlns="http://www.w3.org/2000/svg"
 width="500.000000pt" height="500.000000pt" viewBox="0 0 500.000000 500.000000"
 preserveAspectRatio="xMidYMid meet">

<g transform="translate(0.000000,500.000000) scale(0.100000,-0.100000)"
fill="#000000" stroke="none">
<path d="M1409 4150 c-9 -5 -37 -34 -63 -64 -42 -50 -46 -58 -35 -78 10 -20 7
-19 -20 6 -17 17 -31 24 -31 18 0 -29 215 -135 320 -157 20 -4 50 -22 69 -42
49 -51 101 -68 101 -34 0 20 -48 66 -87 84 -13 6 -23 18 -23 29 0 13 -8 18
-27 19 -16 0 -37 5 -48 10 -19 9 -18 9 2 5 13 -2 26 0 29 5 3 6 12 5 22 -3 13
-11 15 -11 10 3 -4 11 -1 16 10 15 9 0 18 7 20 17 2 9 -1 17 -7 17 -6 0 -11
-4 -11 -10 0 -5 -5 -10 -11 -10 -5 0 -7 4 -4 10 3 5 -31 27 -77 48 -46 22 -92
49 -103 62 -11 13 -14 20 -7 16 7 -4 12 -1 12 9 0 10 -5 14 -12 10 -7 -4 -4 1
6 9 20 16 20 16 0 16 -10 0 -26 -5 -35 -10z m192 -173 c-8 -8 -14 -7 -23 2
-11 10 -9 11 6 5 15 -6 17 -4 11 6 -6 9 -4 11 4 5 9 -5 10 -10 2 -18z m-36 -7
c3 -6 -1 -7 -9 -4 -18 7 -21 14 -7 14 6 0 13 -4 16 -10z"/>
<path d="M1513 4128 c-18 -6 -33 -17 -33 -25 0 -28 159 -80 173 -57 3 5 0 16
-7 25 -13 18 -85 70 -95 68 -3 -1 -21 -6 -38 -11z"/>
<path d="M1270 3909 c0 -36 -2 -40 -20 -34 -10 3 -28 1 -40 -5 -11 -6 -75 -20
-141 -31 -79 -12 -131 -26 -149 -39 -77 -55 -143 -172 -175 -310 -9 -41 -34
-113 -55 -160 -31 -69 -39 -99 -42 -160 -3 -75 -3 -75 28 -90 30 -15 30 -16
18 -55 -7 -22 -13 -63 -13 -92 -1 -28 -6 -55 -12 -59 -17 -10 -5 -198 14 -227
8 -12 17 -53 21 -92 9 -84 72 -376 92 -423 12 -29 12 -37 -1 -55 -16 -22 -20
-59 -8 -70 3 -4 17 3 30 15 33 31 28 12 -7 -29 -35 -40 -37 -53 -10 -60 22 -6
26 -18 10 -28 -6 -4 -22 1 -35 9 -33 22 -34 -2 -2 -32 22 -20 22 -25 15 -129
-4 -59 -10 -139 -14 -178 -3 -38 -6 -96 -5 -127 2 -66 14 -59 -135 -78 -69 -9
-107 -9 -150 0 -33 6 -93 10 -134 8 -60 -2 -75 -6 -78 -20 -2 -12 7 -18 38
-23 25 -4 38 -11 33 -16 -5 -5 -23 -5 -43 1 -41 12 -53 4 -15 -10 23 -9 25
-13 14 -26 -19 -23 17 -47 131 -85 82 -27 114 -32 228 -37 128 -5 134 -6 144
-28 6 -13 20 -26 31 -30 24 -8 11 -21 -28 -27 -16 -2 5 -5 47 -6 42 0 110 -5
150 -10 99 -13 177 -20 215 -21 26 0 36 -6 48 -30 21 -41 72 -52 242 -52 140
1 155 3 243 24 52 13 75 28 41 28 -12 0 -19 4 -16 10 4 6 73 10 178 9 157 -1
168 -2 132 -14 -22 -8 -74 -14 -115 -14 -81 -1 -83 -2 -120 -45 l-25 -28 68 7
c67 7 68 7 56 -12 -30 -49 9 -63 164 -57 54 3 97 1 97 -4 0 -10 69 19 70 29 0
7 -41 14 -149 25 l-64 7 79 26 c101 33 136 55 132 84 -2 15 -17 27 -48 39
l-45 18 45 -4 c25 -2 70 -12 100 -21 63 -19 199 -31 227 -21 17 7 17 8 0 21
-15 11 -7 13 60 17 58 4 82 1 95 -9 29 -25 109 -43 195 -43 88 0 113 15 43 26
-22 4 -40 10 -40 14 0 16 70 18 99 4 37 -18 177 -32 168 -17 -4 6 -23 14 -42
17 -44 9 -45 22 -2 29 57 9 417 8 417 -1 0 -5 12 -14 26 -21 15 -6 24 -15 20
-18 -3 -4 -43 -12 -89 -19 -75 -11 -63 -12 138 -7 228 5 327 19 453 63 71 25
83 37 47 46 -27 7 -57 2 -190 -29 -33 -8 -62 -13 -64 -11 -2 2 8 13 22 25 15
11 27 27 27 34 0 23 425 8 455 -15 13 -11 92 -16 101 -7 4 4 -3 7 -16 7 -36 0
-13 14 63 39 37 12 101 38 143 57 41 19 81 34 89 34 16 0 77 68 70 79 -6 11
-78 -3 -177 -34 -78 -25 -128 -31 -141 -18 -9 8 24 32 44 33 9 0 22 6 28 14 7
8 35 23 63 33 28 10 53 25 55 33 8 28 37 75 52 87 14 11 14 12 1 13 -8 0 3 12
25 28 l40 27 -32 3 c-18 2 -61 -4 -95 -14 -35 -9 -76 -18 -91 -19 -29 -2 -55
-20 -44 -31 3 -3 30 -9 59 -13 l53 -7 -33 -11 c-46 -17 -92 -7 -92 21 0 11 -9
51 -19 88 -16 55 -18 87 -14 180 4 85 1 136 -12 203 -10 50 -17 108 -16 129 0
22 -6 50 -14 62 -13 20 -12 28 6 78 11 32 28 107 39 169 10 62 30 137 44 168
13 30 31 79 40 108 8 28 25 65 37 82 30 43 38 89 29 166 -6 49 -16 78 -38 108
-25 36 -29 49 -25 86 4 36 1 48 -17 64 -20 18 -34 20 -146 17 -108 -2 -129 0
-164 18 -22 11 -40 23 -40 26 0 3 9 17 20 31 29 37 25 51 -7 22 l-27 -24 27
37 c28 38 34 54 17 43 -5 -3 -10 1 -10 11 0 13 -3 14 -15 4 -13 -11 -15 -7
-16 21 -2 31 -2 31 -6 7 -5 -32 -19 -37 -27 -10 -3 9 -20 32 -38 51 -35 38
-48 28 -27 -21 7 -18 14 -40 14 -50 1 -16 -3 -14 -27 9 -15 15 -28 22 -28 16
0 -14 61 -91 103 -130 35 -33 50 -81 52 -178 1 -22 5 -61 9 -88 8 -47 8 -47
-22 -53 -25 -5 -36 -17 -57 -60 -19 -38 -40 -63 -73 -86 -74 -49 -131 -98
-143 -120 -12 -21 -11 -21 17 0 80 61 187 132 199 132 21 0 26 -16 10 -30 -8
-7 -15 -22 -15 -35 0 -12 -12 -50 -26 -85 -14 -35 -34 -97 -44 -139 -11 -42
-32 -105 -47 -141 -24 -58 -27 -78 -28 -180 0 -73 -5 -123 -12 -137 -16 -28
-62 -216 -98 -404 l-29 -147 -57 -6 c-32 -4 -90 -14 -129 -22 -49 -10 -76 -11
-89 -4 -22 11 -66 80 -62 98 1 6 -2 12 -8 12 -5 0 -12 8 -14 18 -4 16 -5 16
-6 -1 0 -10 -5 -15 -11 -12 -12 8 -13 -7 -1 -20 4 -6 11 -23 15 -40 5 -24 2
-21 -16 15 -13 25 -19 48 -14 51 5 4 5 12 1 19 -14 23 -26 -16 -15 -46 17 -43
2 -41 -16 2 l-17 39 -15 -50 -16 -50 -4 35 c-2 19 -8 40 -14 45 -7 7 -9 -1 -5
-27 3 -21 4 -38 2 -38 -2 0 -13 16 -25 35 -27 44 -40 44 -41 3 0 -31 -1 -32
-11 -10 -15 30 -26 28 -31 -5 -3 -25 -4 -24 -6 7 l-2 35 -19 -24 -20 -23 0 24
c0 28 25 67 36 56 4 -5 22 3 39 16 24 19 35 22 43 14 14 -14 27 -4 17 11 -3 6
-17 11 -30 11 -13 0 -26 6 -28 13 -4 7 -6 6 -6 -5 -1 -20 -15 -25 -53 -20 -36
5 -36 15 2 29 27 10 30 15 25 40 -5 25 -4 26 4 6 6 -13 17 -23 26 -23 8 0 15
-4 15 -9 0 -5 12 -13 28 -19 15 -5 38 -19 51 -31 35 -31 56 -28 35 4 -9 14
-14 31 -11 39 7 19 -22 30 -39 15 -11 -9 -14 -9 -14 0 0 7 -4 9 -10 6 -5 -3
-12 7 -15 22 -3 15 -10 42 -17 58 -6 17 -14 65 -19 107 -8 75 -45 172 -113
301 -14 26 -26 59 -26 73 0 13 -4 24 -9 24 -10 0 -12 21 -11 130 1 143 5 185
22 209 10 14 25 59 34 100 20 87 11 160 -26 210 -11 16 -20 36 -20 45 0 21 -7
20 -37 -4 -14 -11 -39 -20 -54 -20 -18 0 -29 -5 -29 -14 0 -17 -54 -41 -70
-31 -6 4 -17 -1 -24 -10 -12 -16 -18 -16 -101 10 -119 36 -135 47 -135 97 0
34 3 39 18 33 28 -11 72 -18 72 -12 0 4 -18 11 -40 17 -35 9 -40 14 -40 39 0
25 3 28 23 24 16 -3 18 -2 8 5 -10 7 -11 17 -3 43 26 82 31 112 20 101 -22
-22 -27 -12 -31 51 -2 36 -4 13 -5 -55 -2 -111 -3 -118 -22 -118 -38 0 -145
-42 -166 -65 l-22 -23 -6 45 c-3 25 -6 82 -7 127 -1 45 -5 92 -10 106 -6 19
-8 12 -5 -27 3 -59 -4 -67 -22 -25 -10 25 -11 25 -6 2 4 -18 2 -21 -4 -10 -6
8 -13 34 -17 57 -5 34 -2 53 19 99 16 35 33 58 47 61 14 4 17 8 9 13 -17 11
-5 27 38 50 31 16 33 19 14 20 -12 0 -39 -7 -58 -15 -20 -8 -41 -12 -47 -8 -6
3 -7 1 -3 -5 4 -7 2 -12 -3 -12 -6 0 -11 -8 -11 -18 0 -10 -7 -27 -15 -38 -13
-17 -14 -15 -16 36 -1 36 -3 47 -7 32 -4 -13 -11 -23 -17 -23 -17 -1 -16 17 4
38 11 11 17 23 14 27 -3 3 -36 -21 -74 -53 -37 -32 -93 -76 -123 -97 -31 -22
-56 -44 -56 -50 0 -6 12 -20 28 -32 15 -12 34 -27 43 -34 9 -7 19 -28 23 -47
5 -27 3 -32 -9 -27 -10 4 -15 -1 -15 -14 0 -23 -10 -25 -29 -7 -9 8 -8 2 2
-19 10 -19 12 -35 6 -45 -12 -19 -11 -32 2 -24 7 5 7 2 0 -11 -5 -11 -15 -48
-21 -84 -17 -95 -34 -130 -63 -130 -25 0 -30 9 -80 134 -12 33 -28 61 -35 64
-17 5 -15 -18 7 -60 10 -20 28 -62 41 -92 21 -53 21 -58 6 -75 -24 -27 7 -91
57 -115 19 -10 42 -58 87 -180 7 -22 13 -27 21 -19 8 8 0 36 -29 101 l-40 91
29 27 c16 15 29 34 29 42 0 8 19 58 42 111 41 95 73 151 86 151 4 0 29 -57 56
-126 27 -69 53 -127 57 -129 3 -3 27 23 53 58 37 50 46 70 46 104 0 35 4 44
33 62 17 11 42 28 55 37 35 26 46 6 52 -90 6 -102 4 -116 -20 -116 -11 0 -25
-10 -31 -22 -18 -35 -97 -125 -130 -148 -16 -12 -59 -30 -95 -40 -37 -11 -77
-26 -90 -35 -23 -15 -23 -16 -7 -50 l17 -35 20 24 c12 13 50 41 86 61 36 21
84 52 107 68 l42 29 53 -32 c107 -65 120 -99 74 -189 -84 -161 -135 -281 -141
-328 -3 -28 -12 -68 -20 -87 -20 -47 -19 -101 3 -168 11 -32 15 -63 11 -74 -4
-10 -8 -31 -8 -46 -1 -16 -10 -33 -23 -42 -22 -16 -22 -16 -1 -16 11 0 26 7
33 15 7 8 20 15 29 15 10 0 28 11 41 25 13 14 28 25 34 25 5 0 -7 -18 -29 -40
-21 -22 -37 -41 -34 -43 2 -3 14 -9 26 -16 17 -9 25 -8 39 6 16 16 16 16 10
-4 -5 -15 -1 -25 11 -35 47 -34 121 -160 137 -233 7 -28 6 -29 -7 -10 -8 11
-20 38 -27 60 -12 37 -40 88 -40 73 0 -3 9 -28 20 -54 11 -26 19 -52 16 -58
-2 -6 -5 -3 -5 7 -1 9 -5 17 -11 17 -5 0 -15 19 -21 43 l-12 42 -7 -30 -6 -30
-7 26 c-10 39 -38 102 -42 97 -3 -2 4 -31 16 -62 21 -62 21 -116 0 -59 -7 17
-19 34 -27 37 -8 3 -14 16 -14 28 -1 13 -7 37 -15 53 -13 29 -13 29 -8 -20 2
-27 0 -61 -6 -75 l-11 -25 5 28 c7 37 -1 34 -21 -8 -9 -20 -19 -34 -21 -31 -2
2 2 17 10 33 9 16 19 46 22 67 7 37 7 38 -15 26 -22 -12 -22 -11 -16 16 6 24
5 26 -8 15 -9 -8 -16 -10 -16 -6 0 4 -10 -5 -22 -21 -31 -42 -42 -52 -29 -27
14 28 14 36 -1 27 -7 -4 -8 -3 -4 4 4 7 3 12 -2 12 -9 0 -47 -51 -71 -95 -14
-26 -14 -1 0 28 9 20 9 20 -4 5 -8 -10 -17 -15 -20 -12 -15 15 19 -86 40 -117
32 -48 41 -106 19 -115 -9 -3 -14 -9 -11 -13 2 -4 -1 -8 -8 -8 -7 0 -12 13
-12 28 0 15 3 25 8 22 4 -2 7 0 7 6 0 5 3 17 7 27 5 13 3 15 -7 9 -10 -6 -12
-4 -7 8 3 10 3 17 -2 17 -5 0 -12 11 -15 25 -4 14 -11 25 -16 25 -13 0 -13 0
5 -50 18 -51 14 -65 -5 -18 -7 18 -20 41 -29 51 -8 10 -16 24 -17 31 -1 7 -11
30 -23 52 -12 21 -19 30 -16 19 5 -16 4 -18 -6 -7 -22 21 -28 14 -23 -25 l4
-38 -11 34 c-10 32 -11 32 -29 16 -18 -16 -18 -20 -5 -52 l15 -36 -28 29 c-15
16 -26 33 -24 37 2 4 -2 15 -9 23 -10 12 -14 12 -21 2 -7 -10 -8 -10 -7 2 1 8
1 23 0 34 -1 16 -3 17 -18 5 -16 -12 -16 -11 0 8 11 12 25 19 33 16 8 -3 13
-8 10 -10 -7 -7 15 -63 25 -63 15 0 50 40 44 50 -4 6 -15 10 -26 10 -10 0 -19
5 -19 10 0 6 -9 10 -20 10 -11 0 -20 4 -20 10 0 11 -58 -19 -110 -58 -30 -22
-32 -22 -16 -4 21 25 15 42 -8 22 -9 -6 -19 -10 -24 -8 -5 1 -37 38 -71 81
-49 62 -65 76 -76 67 -10 -9 -20 -3 -42 26 -63 81 -289 359 -313 384 -8 9 -47
54 -87 100 -39 47 -80 94 -90 105 -65 73 -103 126 -97 137 5 7 3 8 -5 4 -7 -5
-18 0 -26 10 -13 17 -13 15 -8 -20 8 -53 -16 -45 -35 12 -9 28 -20 42 -31 42
-13 0 -18 10 -19 39 -5 80 -12 105 -33 125 l-22 21 17 -25 c9 -13 16 -31 15
-40 0 -13 -1 -13 -6 0 -3 8 -15 24 -27 35 -55 53 -96 107 -90 117 4 7 3 8 -4
4 -8 -5 -12 1 -12 16 0 18 -2 20 -10 8 -9 -13 -10 -13 -11 0 -1 8 -1 18 0 22
0 5 -2 7 -7 7 -20 -3 -23 3 -11 18 12 15 12 16 -5 10 -14 -6 -17 -4 -12 9 4
12 2 15 -9 10 -13 -4 -14 -2 -5 14 15 28 12 37 -5 14 -15 -19 -16 -18 -19 24
-1 7 -8 17 -16 23 -12 8 -10 9 9 7 18 -2 29 5 42 27 10 17 23 38 29 48 9 15 7
17 -17 17 -17 0 -36 9 -47 21 -17 20 -17 23 -2 31 9 5 16 18 16 28 0 11 5 21
10 21 6 1 15 3 20 4 6 1 13 3 17 4 3 0 -2 11 -13 22 -19 22 -19 22 2 11 34
-18 46 -39 49 -86 2 -24 6 -49 9 -55 4 -6 4 -15 1 -21 -3 -5 3 -26 13 -47 10
-21 25 -57 32 -81 11 -34 23 -49 57 -69 48 -28 60 -59 18 -49 -30 8 -33 -4 -5
-22 11 -7 20 -21 20 -31 0 -11 4 -22 9 -25 5 -3 12 24 16 60 6 54 4 73 -11
100 -22 40 -17 47 23 34 23 -8 35 -23 52 -65 25 -60 20 -80 -31 -109 -15 -10
-28 -26 -28 -37 0 -25 5 -24 44 6 43 33 50 32 31 -6 -16 -29 -15 -31 4 -36 12
-3 21 -10 21 -15 0 -6 -9 -8 -20 -5 -27 7 -25 -5 4 -32 26 -24 50 -102 41
-131 -5 -15 42 -79 105 -140 8 -8 38 -43 65 -77 27 -34 51 -61 52 -59 9 9 -30
90 -54 110 -22 19 -25 27 -16 38 7 7 17 34 22 58 10 41 8 48 -18 85 -17 25
-28 55 -30 80 -1 22 -6 41 -11 43 -5 2 -6 10 -4 17 3 8 2 20 -2 27 -5 7 -10
22 -11 33 -6 46 -26 104 -34 99 -5 -3 -6 2 -3 10 3 9 1 16 -5 16 -19 0 -1 24
39 54 44 33 43 46 -3 47 -18 0 -26 3 -19 6 17 7 15 28 -3 43 -14 11 -11 15 16
32 30 18 33 18 66 3 40 -19 49 -15 33 14 -10 19 -33 26 -69 22 -7 -2 -10 2 -6
8 3 6 23 11 43 11 25 0 33 3 25 11 -5 5 -20 11 -32 12 -24 2 -26 14 -6 41 19
25 19 41 0 60 -14 14 -14 18 -1 38 21 33 64 151 80 219 12 53 11 62 -5 100
-22 47 -23 60 -8 56 6 -1 16 7 22 18 6 11 19 32 29 47 l18 27 -78 56 c-72 53
-104 71 -194 108 l-38 16 0 -40z m-213 -171 c32 -36 43 -63 43 -111 0 -53 -28
-205 -41 -227 -6 -10 -7 -6 -3 13 10 46 10 60 -3 64 -8 3 -13 -4 -13 -19 -1
-17 -8 -9 -29 32 -16 30 -32 66 -36 80 -7 22 -6 23 9 11 26 -22 19 -2 -16 41
-30 39 -31 41 -13 54 16 12 17 14 2 20 -25 9 -21 22 16 44 41 26 59 25 84 -2z
m397 -114 c9 -22 8 -24 -9 -18 -8 4 -15 12 -15 20 0 19 16 18 24 -2z m-464
-180 c10 -29 22 -84 26 -121 7 -64 6 -67 -10 -54 -17 14 -38 56 -50 102 -6 20
-4 19 10 -6 29 -51 26 -13 -7 75 -44 121 -46 131 -15 91 14 -19 35 -59 46 -87z
m1400 72 c-6 -6 -10 -26 -10 -46 0 -20 -6 -45 -14 -55 -12 -17 -16 -17 -29 -4
-9 8 -23 20 -31 26 -13 11 -12 17 7 48 12 19 28 32 35 30 21 -7 41 6 35 23 -4
15 -3 15 6 2 6 -9 7 -18 1 -24z m-950 22 c0 -2 -9 -27 -20 -56 -11 -29 -20
-64 -20 -78 0 -22 -4 -26 -24 -22 -18 4 -26 0 -30 -16 -5 -20 11 -39 26 -30 4
3 8 1 8 -5 0 -5 -4 -12 -8 -15 -15 -9 -33 11 -46 49 l-13 38 -12 -67 c-7 -38
-19 -86 -28 -108 -14 -34 -14 -44 -3 -61 9 -15 10 -22 1 -25 -17 -6 -13 -29 6
-36 15 -6 15 -8 0 -23 -22 -22 -67 -3 -67 28 0 18 -2 19 -15 9 -19 -16 -19
-11 0 35 15 34 13 75 -3 75 -4 0 -20 -20 -37 -44 -16 -25 -40 -50 -53 -55 -32
-15 -34 -14 -20 9 11 17 10 22 -2 30 -13 8 -12 10 3 10 9 0 17 7 17 15 0 9 -7
15 -16 13 -29 -5 -26 17 6 53 l31 34 -16 -32 c-18 -38 -5 -45 18 -10 9 13 29
38 46 55 17 17 31 35 31 41 0 5 -11 -1 -25 -14 -16 -16 -35 -25 -57 -25 -24 0
-29 3 -21 11 6 6 9 18 6 25 -3 8 0 14 6 14 7 0 11 8 9 18 -2 11 5 18 20 20 18
3 22 8 16 20 -13 31 -17 82 -5 82 6 0 11 -11 11 -24 0 -45 19 -37 26 11 l7 48
13 -32 c8 -17 17 -60 21 -94 l8 -64 45 75 c38 64 45 71 48 50 6 -41 19 -44 31
-8 13 40 45 78 66 78 8 0 15 -1 15 -2z m1004 -215 c9 -58 7 -86 -9 -107 -14
-19 -15 -19 -36 0 -18 16 -69 104 -69 119 0 19 19 -2 39 -42 25 -53 34 -48 46
25 8 52 20 54 29 5z m1831 -111 c-3 -3 -11 0 -18 7 -9 10 -8 11 6 5 10 -3 15
-9 12 -12z m-1967 -17 c-3 -3 -9 2 -12 12 -6 14 -5 15 5 6 7 -7 10 -15 7 -18z
m2117 -31 c60 -15 111 -41 101 -51 -8 -8 -136 17 -168 33 -15 8 -28 19 -28 24
0 14 27 12 95 -6z m-3289 -177 c8 -24 5 -26 -33 -15 -28 7 -33 13 -33 39 l0
30 30 -18 c17 -9 33 -26 36 -36z m134 25 c0 -10 7 -27 15 -39 28 -39 129 -378
123 -413 -6 -38 -23 -23 -42 36 -10 33 -32 87 -48 121 -18 38 -31 83 -33 115
-2 29 -11 73 -19 97 -18 49 -22 116 -6 106 6 -3 10 -14 10 -23z m-343 -115
l32 -52 -45 -9 c-44 -8 -68 -2 -49 12 11 8 14 18 18 67 1 19 4 35 7 35 3 0 19
-24 37 -53z m73 -113 c0 -7 13 -20 28 -29 42 -25 84 -97 80 -137 -3 -29 -8
-34 -40 -42 -47 -12 -48 -27 -3 -62 33 -25 35 -30 35 -83 0 -51 -6 -84 -41
-213 -6 -22 -16 -38 -24 -38 -14 0 -20 -27 -16 -71 1 -9 -3 -28 -9 -44 -10
-27 -11 -27 -30 -10 -19 17 -21 17 -53 0 -57 -30 -66 -14 -20 36 34 37 39 47
27 54 -8 6 -17 27 -21 48 -5 34 -2 41 32 73 l38 35 -19 36 c-11 19 -45 62 -78
95 -32 32 -55 62 -52 65 3 4 17 -4 30 -16 21 -20 35 -23 91 -23 37 0 69 3 73
6 3 4 -9 22 -28 41 -30 31 -37 34 -76 28 -40 -5 -43 -4 -58 25 -20 39 -20 50
0 54 12 2 0 14 -34 38 -28 19 -49 36 -48 38 2 2 21 -8 41 -23 39 -26 98 -34
111 -14 4 7 -7 22 -25 36 -18 14 -30 31 -27 38 2 7 -9 22 -26 35 -39 29 -31
35 21 14 22 -9 49 -13 58 -9 16 5 14 9 -10 23 -33 20 -35 31 -3 25 13 -3 27 0
31 7 8 14 45 -15 45 -36z m160 -584 c7 -30 21 -70 31 -88 10 -18 19 -51 19
-73 0 -26 13 -64 41 -117 35 -67 39 -81 30 -105 -13 -33 -14 -166 -3 -217 12
-52 -4 -117 -31 -126 -30 -10 -94 -6 -117 6 -10 6 -28 6 -40 2 -20 -7 -17 -10
21 -22 24 -7 73 -14 108 -15 45 -1 66 -5 69 -14 4 -11 -4 -13 -34 -8 -22 3
-81 9 -132 13 -73 5 -95 11 -99 23 -4 9 -11 23 -18 31 -9 12 -9 36 1 110 8 52
17 132 20 178 6 67 10 82 23 82 27 0 40 21 34 52 -4 21 0 35 17 53 l22 23 -17
74 c-17 72 -17 74 5 147 25 80 30 79 50 -9z m1770 39 c0 -6 14 -32 31 -57 27
-40 29 -48 18 -69 -17 -31 0 -86 46 -146 19 -25 35 -51 35 -57 0 -6 11 -37 25
-70 29 -68 31 -110 10 -170 -16 -45 -13 -60 11 -60 8 0 14 -4 14 -10 0 -17
-51 -44 -85 -44 -24 -1 -35 -6 -39 -18 -2 -11 1 -18 10 -18 22 0 4 -29 -29
-47 -20 -10 -32 -12 -35 -5 -1 5 -15 23 -29 39 l-26 28 17 -28 c10 -16 15 -31
12 -34 -3 -3 -14 10 -25 28 -16 25 -18 37 -9 52 12 24 4 206 -18 406 l-15 134
27 28 c20 21 28 42 32 79 2 27 8 50 13 50 5 0 9 -5 9 -11z m-1286 -173 c54
-62 136 -164 183 -227 48 -63 101 -131 119 -152 26 -32 32 -46 32 -87 0 -35
-4 -50 -13 -50 -17 0 -45 28 -45 44 0 13 -52 76 -63 76 -14 0 -6 -34 19 -91
15 -33 31 -59 35 -59 20 0 7 -25 -32 -61 l-42 -39 -146 7 c-111 6 -145 11
-143 21 1 7 2 23 2 35 -4 93 2 225 12 290 11 72 10 78 -8 92 -13 10 -34 12
-69 8 -35 -4 -62 0 -90 12 l-40 16 26 22 c15 12 41 33 59 47 61 47 90 97 90
157 0 29 4 53 9 53 5 0 52 -51 105 -114z m-550 -65 c7 -11 -20 -48 -29 -39 -9
8 4 48 15 48 5 0 11 -4 14 -9z m-142 -76 c-4 -23 -8 -25 -64 -25 -71 0 -75 18
-7 36 69 19 77 18 71 -11z m2283 -195 c-3 -5 -11 -10 -16 -10 -6 0 -7 5 -4 10
3 6 11 10 16 10 6 0 7 -4 4 -10z m195 -30 c0 -5 -2 -10 -4 -10 -3 0 -8 5 -11
10 -3 6 -1 10 4 10 6 0 11 -4 11 -10z m-211 -61 c-9 -17 -8 -23 2 -30 11 -7
10 -9 -3 -9 -21 0 -24 30 -6 48 18 18 20 15 7 -9z m-46 -55 c-11 -17 -19 -22
-21 -14 -3 7 3 19 14 27 26 19 27 17 7 -13z m-523 -32 c0 -5 -7 -17 -15 -28
-14 -18 -14 -17 -4 9 12 27 19 34 19 19z m-446 -17 c-4 -8 -8 -15 -10 -15 -2
0 -4 7 -4 15 0 8 4 15 10 15 5 0 7 -7 4 -15z m140 6 c3 -5 -1 -11 -9 -14 -9
-4 -12 -1 -8 9 6 16 10 17 17 5z m493 -73 c-3 -7 -5 -2 -5 12 0 14 2 19 5 13
2 -7 2 -19 0 -25z m1567 -111 c14 -8 23 -17 19 -20 -3 -4 2 -7 13 -8 16 0 15
-2 -5 -12 -17 -8 -26 -8 -28 -1 -2 7 -42 6 -126 -3 -67 -7 -149 -12 -182 -11
l-60 3 73 18 c40 10 80 16 88 13 8 -3 25 1 38 9 12 8 26 12 30 8 10 -10 79 -4
91 8 12 12 18 11 49 -4z m-214 -77 c0 -5 -12 -10 -27 -9 -25 0 -26 1 -8 9 27
12 35 12 35 0z m-3433 -26 c-3 -3 -12 -4 -19 -1 -8 3 -5 6 6 6 11 1 17 -2 13
-5z m-7 -24 c0 -5 -10 -10 -22 -10 -19 0 -20 2 -8 10 19 13 30 13 30 0z m2375
-19 c-6 -6 -75 -10 -155 -11 -167 -2 -188 0 -140 10 53 11 306 12 295 1z
m1025 -11 c0 -5 -4 -10 -10 -10 -5 0 -10 5 -10 10 0 6 5 10 10 10 6 0 10 -4
10 -10z m-2940 -20 c0 -5 -12 -10 -27 -9 -25 0 -26 1 -8 9 27 12 35 12 35 0z
m417 4 c-3 -3 -12 -4 -19 -1 -8 3 -5 6 6 6 11 1 17 -2 13 -5z m333 -4 c-8 -5
-58 -9 -110 -8 l-95 2 100 6 c55 3 105 7 110 8 6 1 3 -3 -5 -8z m175 -20 c-3
-5 -15 -10 -26 -10 -10 0 -19 5 -19 10 0 6 12 10 26 10 14 0 23 -4 19 -10z
m1220 0 c4 -6 -7 -10 -25 -10 -18 0 -29 4 -25 10 3 6 15 10 25 10 10 0 22 -4
25 -10z m-1625 -10 c0 -5 -12 -10 -26 -10 -14 0 -23 4 -19 10 3 6 15 10 26 10
10 0 19 -4 19 -10z m1410 0 c11 -7 3 -10 -30 -9 -34 0 -40 2 -25 9 27 12 37
12 55 0z m493 -7 c-7 -2 -19 -2 -25 0 -7 3 -2 5 12 5 14 0 19 -2 13 -5z m-670
-10 c-7 -2 -19 -2 -25 0 -7 3 -2 5 12 5 14 0 19 -2 13 -5z m-1416 -19 c-3 -3
-12 -4 -19 -1 -8 3 -5 6 6 6 11 1 17 -2 13 -5z m381 -15 c87 -1 107 -3 77 -9
-51 -10 -222 -16 -231 -8 -11 11 7 30 23 24 8 -3 67 -7 131 -7z m1132 1 c0
-13 -11 -13 -30 0 -12 8 -11 10 8 10 12 0 22 -4 22 -10z m-1433 -26 c-3 -3
-12 -4 -19 -1 -8 3 -5 6 6 6 11 1 17 -2 13 -5z m41 -61 c-16 -2 -40 -2 -55 0
-16 2 -3 4 27 4 30 0 43 -2 28 -4z"/>
<path d="M1057 3653 c9 -61 9 -92 -1 -120 -4 -13 -3 -23 2 -23 17 0 30 138 16
174 -14 35 -25 14 -17 -31z"/>
<path d="M960 2701 c0 -13 27 -21 45 -15 25 10 17 24 -15 24 -16 0 -30 -4 -30
-9z"/>
<path d="M1461 1940 c-24 -11 -52 -20 -62 -20 -10 0 -19 -4 -19 -10 0 -16 79
-12 116 6 32 15 40 34 18 41 -5 1 -29 -6 -53 -17z"/>
<path d="M1880 1516 c0 -8 4 -17 9 -20 5 -4 7 3 4 14 -6 23 -13 26 -13 6z"/>
<path d="M1755 1460 l-60 -7 68 -1 c39 -1 67 2 67 8 0 6 -3 9 -7 8 -5 -1 -35
-4 -68 -8z"/>
<path d="M3458 3730 c-47 -33 -89 -67 -92 -76 -4 -9 7 -39 24 -69 36 -62 37
-76 9 -101 -61 -55 -59 -142 3 -127 34 9 43 19 46 49 5 65 41 113 158 206 63
50 114 94 114 99 0 24 -26 17 -58 -17 -32 -34 -42 -39 -74 -36 -26 2 -39 9
-43 22 -8 24 22 67 52 74 34 9 18 36 -21 36 -22 0 -57 -17 -118 -60z"/>
<path d="M2292 3715 c-6 -14 -16 -25 -22 -25 -6 0 -21 -11 -33 -24 -40 -43
-108 -11 -78 36 14 23 7 20 -47 -20 -18 -13 -43 -24 -57 -24 -25 0 -29 -7 -26
-40 1 -10 -10 -33 -24 -53 -67 -87 -36 -190 51 -173 10 2 31 31 50 68 26 54
43 73 98 112 94 68 150 152 110 165 -6 2 -16 -8 -22 -22z"/>
<path d="M3738 3587 c-14 -12 -50 -38 -78 -57 -80 -54 -130 -100 -130 -122 0
-16 3 -17 20 -8 25 13 26 2 3 -16 -16 -12 -16 -13 8 -14 15 0 32 -7 39 -15 10
-12 16 -13 28 -3 12 10 14 10 8 1 -4 -8 2 -17 17 -24 19 -8 31 -32 57 -107 41
-121 80 -208 118 -264 24 -36 27 -48 21 -73 -5 -16 -13 -74 -18 -128 -6 -59
-16 -108 -26 -123 -20 -31 -15 -138 8 -162 15 -14 17 -14 23 1 3 9 12 17 19
17 22 0 26 -31 9 -59 -9 -14 -11 -20 -3 -13 7 6 25 12 41 12 32 0 53 32 62 95
6 39 6 39 -9 -7 -9 -27 -18 -48 -21 -48 -3 0 -4 20 -1 45 6 67 -34 117 -46 58
-7 -35 -33 -71 -43 -60 -4 4 -3 22 3 40 7 17 17 51 23 75 7 27 32 67 68 110
32 37 71 85 87 107 16 22 40 51 55 65 57 57 152 171 147 176 -3 4 -29 1 -57
-6 -28 -7 -52 -11 -53 -9 -2 2 -18 42 -37 89 -26 67 -35 107 -42 190 -10 118
-16 148 -17 78 -1 -60 -21 -75 -21 -16 0 55 -19 32 -21 -27 -2 -31 -3 -34 -6
-12 -4 23 -7 26 -19 16 -11 -9 -14 -7 -14 10 0 12 7 35 15 51 14 27 14 30 -11
49 -33 26 -54 27 -54 3 0 -9 -8 -22 -19 -29 -16 -10 -20 -7 -30 26 -6 21 -22
50 -36 65 -14 15 -25 31 -25 37 0 14 -13 10 -42 -14z m68 -40 c12 -12 -7 -77
-21 -77 -8 0 -15 5 -15 10 0 6 -6 10 -14 10 -9 0 -16 -19 -20 -59 -6 -54 -35
-119 -36 -80 0 8 5 20 12 27 12 12 8 15 -44 26 -35 8 -37 40 -5 83 17 24 27
29 39 22 11 -6 18 -4 21 6 4 9 1 12 -9 8 -13 -5 -14 -3 -4 13 8 14 22 19 51
18 22 -1 42 -4 45 -7z"/>
<path d="M915 3019 c-4 -6 -5 -12 -2 -15 2 -3 7 2 10 11 7 17 1 20 -8 4z"/>
<path d="M1257 2621 c-3 -11 1 -22 8 -24 8 -4 10 3 7 19 -5 29 -8 30 -15 5z"/>
<path d="M2265 2580 c-4 -6 -11 -8 -16 -5 -19 12 -9 -71 11 -92 21 -23 102
-214 195 -460 31 -84 63 -160 71 -170 16 -21 -15 65 -121 342 -120 311 -135
354 -126 359 4 3 17 -11 27 -32 10 -20 20 -39 21 -41 2 -2 9 2 18 9 17 14 9
34 -11 26 -10 -4 -14 3 -14 22 0 41 -38 70 -55 42z"/>
<path d="M3786 2316 c-20 -30 -36 -58 -36 -63 0 -7 20 21 65 90 9 15 15 27 12
27 -3 0 -21 -24 -41 -54z"/>
<path d="M3506 1903 c-19 -28 -23 -40 -14 -50 13 -16 32 -3 54 38 31 60 -1 69
-40 12z"/>
<path d="M2616 1801 c-4 -7 -5 -15 -2 -18 9 -9 19 4 14 18 -4 11 -6 11 -12 0z"/>
<path d="M2523 1750 c-44 -26 -42 -34 2 -13 19 9 35 20 35 25 0 11 0 11 -37
-12z"/>
<path d="M2670 1731 c0 -5 5 -13 10 -16 6 -3 10 -2 10 4 0 5 -4 13 -10 16 -5
3 -10 2 -10 -4z"/>
<path d="M2550 1699 c0 -5 5 -7 10 -4 6 3 10 8 10 11 0 2 -4 4 -10 4 -5 0 -10
-5 -10 -11z"/>
<path d="M2701 1634 c0 -11 3 -14 6 -6 3 7 2 16 -1 19 -3 4 -6 -2 -5 -13z"/>
<path d="M3355 1640 c3 -5 8 -10 11 -10 2 0 4 5 4 10 0 6 -5 10 -11 10 -5 0
-7 -4 -4 -10z"/>
<path d="M2390 1604 c0 -6 7 -19 15 -30 8 -10 14 -14 14 -9 0 6 -6 19 -14 29
-8 11 -15 15 -15 10z"/>
<path d="M545 1511 c-11 -37 11 -51 79 -51 43 0 57 3 46 10 -8 5 -26 10 -38
10 -16 0 -26 7 -29 21 -4 13 -11 18 -21 14 -8 -3 -19 0 -23 6 -4 8 -9 4 -14
-10z"/>
<path d="M352 1493 c-19 -7 -4 -23 23 -23 32 0 56 10 49 21 -5 9 -50 11 -72 2z"/>
<path d="M678 1443 c7 -3 16 -2 19 1 4 3 -2 6 -13 5 -11 0 -14 -3 -6 -6z"/>
</g>
</svg>
